<?xml version="1.0" encoding="UTF-8" standalone="no"?><!DOCTYPE svg PUBLIC "-//W3C//DTD SVG 1.1//EN" "http://www.w3.org/Graphics/SVG/1.1/DTD/svg11.dtd"><svg width="100%" height="100%" viewBox="0 0 401 401" version="1.1" xmlns="http://www.w3.org/2000/svg" xmlns:xlink="http://www.w3.org/1999/xlink" xml:space="preserve" xmlns:serif="http://www.serif.com/" style="fill-rule:evenodd;clip-rule:evenodd;stroke-linejoin:round;stroke-miterlimit:2;"><rect id="Artboard1" x="0" y="0" width="400.696" height="400.696" style="fill:none;"/><g id="Layer-1" serif:id="Layer 1"><g id="g1"><path id="path3" d="M101.675,369.704c-16.065,-4.631 -28.214,-16.954 -33.415,-33.842l-1.232,-4l-0.178,-67.266l-0.179,-67.5c-0.002,-0.863 -0.702,-1.561 -1.565,-1.561l-10.4,-0c-10.763,-0 -12.216,-0.207 -15.998,-3.989c-3.128,-3.128 -3.968,-5.545 -3.978,-10.922c-0.015,-7.983 1.145,-9.381 14.214,-21.399c6.149,-5.655 17.902,-16.605 26.116,-24.334c8.21,-7.724 23.105,-21.722 33.099,-31.107c24.552,-23.055 38.862,-36.591 52.861,-50c16.443,-15.751 19.694,-18.597 24.28,-20.866c10.423,-5.157 23.825,-4.382 33.287,1.941c2.301,1.537 13.493,11.733 26.063,23.713c20.132,19.187 26.749,25.476 29.175,27.523c1.64,1.384 2.18,1.342 2.551,1.342c0.512,-0 1.321,-0.205 1.721,-1.355c0.304,-0.873 0.503,-3.528 0.503,-8.297c-0,-2.618 0.024,-4.533 0.15,-5.98c0.119,-1.363 0.291,-2.228 0.726,-2.865c0.428,-0.627 1.089,-1.002 2.014,-1.508c0.679,-0.372 1.448,-0.537 3.288,-0.657c2.191,-0.143 5.669,-0.172 11.626,-0.17c6.006,0.002 9.718,0.02 12.206,0.28c3.193,0.334 4.029,1.127 5.603,2.997l1.17,1.39l-0,51.967c-0,0.427 0.174,0.836 0.484,1.131l4.255,4.066c2.34,2.235 10.197,9.763 17.46,16.728c7.272,6.974 15.636,14.905 18.587,17.625c8.769,8.085 10.514,10.759 10.514,17.583c0,4.598 -1.101,7.66 -3.961,10.917c-3.111,3.543 -4.915,3.952 -13.029,3.957c-4.364,0.003 -9.339,0.179 -11.056,0.385l-3.07,0.369c-0.785,0.094 -1.376,0.76 -1.378,1.55l-0.317,135.466l-1.301,3.867c-5.769,17.146 -17.961,28.808 -34.291,32.723c-4.758,1.141 -6.906,1.126 -99.016,1.089c-87.366,-0.035 -94.333,-0.053 -97.589,-0.991Z" style="fill:#fff;"/><path id="path31" serif:id="path3" d="M101.675,369.704c-16.065,-4.631 -28.214,-16.954 -33.415,-33.842l-1.232,-4l-0.178,-67.266l-0.179,-67.5c-0.002,-0.863 -0.702,-1.561 -1.565,-1.561l-10.4,-0c-10.763,-0 -12.216,-0.207 -15.998,-3.989c-3.128,-3.128 -3.968,-5.545 -3.978,-10.922c-0.015,-7.983 1.145,-9.381 14.214,-21.399c6.149,-5.655 17.902,-16.605 26.116,-24.334c8.21,-7.724 23.105,-21.722 33.099,-31.107c24.552,-23.055 38.862,-36.591 52.861,-50c16.443,-15.751 19.694,-18.597 24.28,-20.866c10.423,-5.157 23.825,-4.382 33.287,1.941c2.301,1.537 13.493,11.733 26.063,23.713c20.132,19.187 26.749,25.476 29.175,27.523c1.64,1.384 2.18,1.342 2.551,1.342c0.512,-0 1.321,-0.205 1.721,-1.355c0.304,-0.873 0.503,-3.528 0.503,-8.297c-0,-2.618 0.024,-4.533 0.15,-5.98c0.119,-1.363 0.291,-2.228 0.726,-2.865c0.428,-0.627 1.089,-1.002 2.014,-1.508c0.679,-0.372 1.448,-0.537 3.288,-0.657c2.191,-0.143 5.669,-0.172 11.626,-0.17c6.006,0.002 9.718,0.02 12.206,0.28c3.193,0.334 4.029,1.127 5.603,2.997l1.17,1.39l-0,51.967c-0,0.427 0.174,0.836 0.484,1.131l4.255,4.066c2.34,2.235 10.197,9.763 17.46,16.728c7.272,6.974 15.636,14.905 18.587,17.625c8.769,8.085 10.514,10.759 10.514,17.583c0,4.598 -1.101,7.66 -3.961,10.917c-3.111,3.543 -4.915,3.952 -13.029,3.957c-4.364,0.003 -9.339,0.179 -11.056,0.385l-3.07,0.369c-0.785,0.094 -1.376,0.76 -1.378,1.55l-0.317,135.466l-1.301,3.867c-5.769,17.146 -17.961,28.808 -34.291,32.723c-4.758,1.141 -6.906,1.126 -99.016,1.089c-87.366,-0.035 -94.333,-0.053 -97.589,-0.991Zm158.87,-37.204c3.198,-1.575 6.06,-4.609 7.547,-8.001c0.969,-2.21 1.056,-6.198 1.236,-56.818l0.193,-54.44l-17.531,0l-17.531,0l-2.278,-2.278l-2.279,-2.279l-0,-38.291l-39.932,0c-43.563,0 -52.42,-0.093 -56.035,3.37c-1.222,1.17 -1.614,2.103 -1.614,3.842c0,4.867 0.127,8.636 0.127,8.636l0.313,135.294l1.35,2.935c2.109,4.581 5.617,7.76 10.091,9.143c0.81,0.25 26.696,0.408 57.526,0.351l56.054,-0.103l2.763,-1.361Z" style="fill:#1e663c;"/><path id="path2" d="M83.006,255.375c-0.061,-58.321 -0.45,-74.445 -0.45,-74.445l0.003,-6.589c0.002,-8.122 0.818,-8.184 9.316,-16c11.108,-10.217 23.839,-22.091 30.203,-28.172c3.39,-3.238 9.726,-9.181 14.08,-13.207c12.219,-11.296 42.153,-39.703 51.953,-49.302c4.842,-4.744 9.421,-8.819 10.176,-9.056c0.754,-0.237 2.313,-0.254 3.463,-0.038c2.134,0.4 3.677,1.725 18.062,15.512c3.231,3.097 7.986,7.6 10.565,10.007c2.58,2.408 7.596,7.169 11.147,10.581c3.551,3.412 9.355,8.838 12.899,12.058c3.543,3.22 7.373,6.779 8.511,7.909c1.138,1.129 3.125,2.952 4.416,4.049c1.291,1.097 5.485,4.927 9.319,8.511c3.834,3.584 7.664,7.144 8.511,7.912c0.847,0.768 4.725,4.465 8.617,8.217c3.893,3.752 9.044,8.579 11.446,10.727c2.402,2.147 6.349,5.743 8.77,7.99l4.402,4.086l0,7.96c0,7.11 -0.293,9.004 -0.293,9.004l-0,71.931c-0,45.141 -0.218,73.108 -0.584,75.092c-1.909,10.348 -11.739,21.581 -21.182,24.206c-4.679,1.3 -9.849,1.35 -104.43,0.997l-86.576,-0.324l-3.395,-1.59c-8.772,-4.111 -14.971,-11.513 -17.84,-21.301c-0.958,-3.271 -1.037,-8.739 -1.109,-76.725Zm178.514,91.171c-0.182,-0.295 5.121,-0.616 12.227,-0.739l12.548,-0.218l5.089,-2.58c5.911,-2.998 9.574,-6.709 11.635,-11.789l1.309,-3.229l0.31,-156.778l-3.676,-3.785c-2.023,-2.081 -5.262,-5.2 -7.199,-6.93c-1.937,-1.729 -5.899,-5.442 -8.804,-8.25c-2.906,-2.809 -9.377,-8.914 -14.381,-13.567c-5.004,-4.654 -9.234,-8.601 -9.4,-8.771c-0.646,-0.662 -11.275,-10.673 -19.648,-18.506c-4.832,-4.519 -11.176,-10.462 -14.098,-13.206c-2.922,-2.744 -6.898,-6.442 -8.836,-8.218c-1.937,-1.775 -6.742,-6.228 -10.678,-9.896l-7.156,-6.668l-8.967,8.387c-4.932,4.613 -11.842,11.179 -15.356,14.592c-3.515,3.413 -6.823,6.601 -7.353,7.085c-0.53,0.485 -5.315,4.978 -10.633,9.986c-5.317,5.009 -13.498,12.651 -18.179,16.983c-4.681,4.332 -10.77,10.008 -13.531,12.612c-2.761,2.604 -8.572,8.036 -12.913,12.072c-13.742,12.774 -14.654,13.673 -15.845,15.6c-1.151,1.862 -1.165,2.935 -1.009,79.866l0.158,77.979l1.285,3.126c3.022,7.347 9.276,12.261 17.263,13.564c2.065,0.337 8.93,0.681 15.255,0.766l11.501,0.153c-0,-0 119.26,0.646 119.082,0.359Z" style="fill:#2aa35c;"/><path id="path1" d="M101.241,371.208c-16.568,-4.775 -29.113,-17.469 -34.477,-34.885l-1.301,-4.223l-0.178,-67.5l-0.179,-67.5l-10.4,-0c-11.537,-0 -13.051,-0.394 -17.104,-4.447c-3.45,-3.45 -4.426,-6.097 -4.438,-12.026c-0.015,-8.37 1.019,-9.955 14.72,-22.554c6.147,-5.653 17.893,-16.597 26.103,-24.322c8.211,-7.724 23.106,-21.723 33.101,-31.108c24.546,-23.05 38.854,-36.583 52.849,-49.989c16.686,-15.984 20.016,-18.837 24.668,-21.139c10.914,-5.399 24.945,-4.577 34.852,2.042c2.318,1.55 13.607,11.811 26.273,23.882c28.693,27.346 29.864,28.433 30.646,28.433c0.455,-0 0.659,-2.499 0.659,-8.087c-0,-8.925 0.296,-9.863 3.704,-11.726c1.631,-0.892 3.647,-1.024 15.665,-1.02c15.216,0.005 15.9,0.144 19.006,3.835l1.538,1.827l-0,52.538l4.255,4.065c2.341,2.236 10.199,9.764 17.462,16.73c7.264,6.966 15.618,14.888 18.565,17.604c9.303,8.578 11.019,11.494 11.019,18.734c-0,5.035 -1.219,8.383 -4.351,11.95c-3.403,3.876 -5.327,4.484 -14.204,4.49c-4.29,0.002 -9.182,0.171 -10.87,0.373l-3.07,0.369l-0.159,67.86l-0.158,67.86l-1.383,4.109c-5.953,17.693 -18.557,29.705 -35.409,33.745c-4.776,1.145 -6.931,1.169 -99.382,1.133c-87.754,-0.036 -94.751,-0.111 -98.022,-1.053l0,-0Zm195.115,-16.89c9.443,-2.625 19.273,-13.858 21.182,-24.206c0.366,-1.984 0.584,-29.951 0.584,-75.092l-0,-71.931l1.276,-1.359c1.272,-1.354 1.33,-1.358 16.853,-1.358l15.577,-0l-2.913,-2.991c-1.602,-1.644 -7.799,-7.507 -13.772,-13.028c-13.418,-12.405 -18.683,-17.336 -25.826,-24.191c-3.067,-2.943 -9.934,-9.421 -15.261,-14.395c-5.326,-4.974 -11.929,-11.178 -14.673,-13.787c-13.078,-12.433 -17.814,-16.861 -23.778,-22.236c-3.548,-3.197 -9.754,-9.008 -13.791,-12.913c-4.038,-3.905 -10.361,-9.874 -14.051,-13.264c-3.691,-3.389 -8.788,-8.08 -11.327,-10.424c-2.538,-2.344 -5.983,-4.954 -7.655,-5.801c-5.631,-2.854 -13.726,-2.354 -18.457,1.14c-2.004,1.48 -12.737,11.442 -24.504,22.744c-3.881,3.728 -10.095,9.66 -13.807,13.183c-3.713,3.523 -12.429,11.857 -19.37,18.52c-6.94,6.664 -16.86,16.051 -22.042,20.861c-8.526,7.912 -19.827,18.424 -42.505,39.536c-4.349,4.049 -10.16,9.536 -12.913,12.195l-5.007,4.834l15.629,0.008c13.324,0.007 15.74,0.142 16.377,0.909c0.595,0.718 0.763,15.782 0.824,74.103c0.072,67.986 0.151,73.454 1.109,76.725c2.869,9.788 9.068,17.19 17.84,21.301l3.395,1.59l86.576,0.324c94.581,0.353 99.751,0.303 104.43,-0.997Zm-63.557,-143.109c-0.857,-0.794 -1.82,-2.132 -2.14,-2.973c-0.339,-0.89 -0.581,-9.242 -0.581,-20.028l0,-18.5l2.495,1.949c1.372,1.072 7.777,7.119 14.233,13.438c6.457,6.318 14.315,13.957 17.462,16.973c5.52,5.291 5.723,5.576 5.723,8.036l0,2.55l-35.633,0l-1.559,-1.445Z" style="fill:#471957;fill-rule:nonzero;"/><g><path d="M242.221,238.81l0,11.254c0,3.106 -2.521,5.627 -5.627,5.627l-67.709,0c-3.105,0 -5.627,-2.521 -5.627,-5.627l0,-11.254c0,-3.105 2.522,-5.627 5.627,-5.627l67.709,0c3.106,0 5.627,2.522 5.627,5.627Z" style="fill:#0a2a42;"/><path d="M242.221,281.121l0,11.254c0,3.105 -2.521,5.627 -5.627,5.627l-67.709,-0c-3.105,-0 -5.627,-2.522 -5.627,-5.627l0,-11.254c0,-3.106 2.522,-5.627 5.627,-5.627l67.709,-0c3.106,-0 5.627,2.521 5.627,5.627Z" style="fill:#0a2a42;"/></g></g></g></svg>