<?xml version="1.0" encoding="UTF-8" standalone="no"?><!DOCTYPE svg PUBLIC "-//W3C//DTD SVG 1.1//EN" "http://www.w3.org/Graphics/SVG/1.1/DTD/svg11.dtd"><svg width="100%" height="100%" viewBox="0 0 512 512" version="1.1" xmlns="http://www.w3.org/2000/svg" xmlns:xlink="http://www.w3.org/1999/xlink" xml:space="preserve" xmlns:serif="http://www.serif.com/" style="fill-rule:evenodd;clip-rule:evenodd;stroke-linejoin:round;stroke-miterlimit:2;"><g id="Layer-1" serif:id="Layer 1"><g id="g1"><path id="path3" d="M129.918,472.399c-20.528,-5.916 -36.051,-21.663 -42.697,-43.242l-1.575,-5.111l-0.227,-85.951l-0.228,-86.25c-0.003,-1.103 -0.897,-1.995 -2,-1.995l-13.289,-0c-13.752,-0 -15.609,-0.265 -20.441,-5.097c-3.997,-3.997 -5.071,-7.085 -5.084,-13.956c-0.02,-10.201 1.463,-11.987 18.162,-27.343c7.858,-7.226 22.875,-21.218 33.371,-31.093c10.491,-9.869 29.522,-27.756 42.293,-39.748c31.372,-29.46 49.658,-46.755 67.544,-63.889c21.012,-20.126 25.166,-23.763 31.025,-26.662c13.319,-6.59 30.443,-5.599 42.534,2.48c2.94,1.964 17.241,14.993 33.302,30.3c25.725,24.517 34.18,32.552 37.28,35.168c2.095,1.769 2.785,1.715 3.259,1.715c0.654,-0 1.687,-0.262 2.199,-1.731c0.389,-1.115 0.643,-4.509 0.643,-10.602c-0,-3.345 0.03,-5.792 0.192,-7.641c0.152,-1.742 0.372,-2.847 0.928,-3.661c0.546,-0.801 1.391,-1.281 2.572,-1.927c0.868,-0.475 1.851,-0.687 4.202,-0.84c2.799,-0.182 7.244,-0.22 14.855,-0.217c7.675,0.002 12.418,0.026 15.597,0.358c4.08,0.427 5.149,1.44 7.159,3.829l1.495,1.777l-0,66.401c-0,0.547 0.223,1.069 0.618,1.447l5.438,5.194c2.99,2.857 13.029,12.475 22.309,21.375c9.293,8.911 19.98,19.046 23.75,22.521c11.206,10.332 13.436,13.747 13.436,22.467c-0,5.876 -1.408,9.788 -5.062,13.95c-3.975,4.527 -6.28,5.05 -16.648,5.056c-5.576,0.004 -11.933,0.229 -14.127,0.492l-3.922,0.472c-1.004,0.12 -1.759,0.97 -1.762,1.981l-0.404,173.094l-1.663,4.942c-7.372,21.908 -22.951,36.81 -43.816,41.812c-6.081,1.458 -8.824,1.439 -126.521,1.392c-111.634,-0.044 -120.537,-0.068 -124.697,-1.267Z" style="fill:#fff;"/><path id="path31" serif:id="path3" d="M129.918,472.399c-20.528,-5.916 -36.051,-21.663 -42.697,-43.242l-1.575,-5.111l-0.227,-85.951l-0.228,-86.25c-0.003,-1.103 -0.897,-1.995 -2,-1.995l-13.289,-0c-13.752,-0 -15.609,-0.265 -20.441,-5.097c-3.997,-3.997 -5.071,-7.085 -5.084,-13.956c-0.02,-10.201 1.463,-11.987 18.162,-27.343c7.858,-7.226 22.875,-21.218 33.371,-31.093c10.491,-9.869 29.522,-27.756 42.293,-39.748c31.372,-29.46 49.658,-46.755 67.544,-63.889c21.012,-20.126 25.166,-23.763 31.025,-26.662c13.319,-6.59 30.443,-5.599 42.534,2.48c2.94,1.964 17.241,14.993 33.302,30.3c25.725,24.517 34.18,32.552 37.28,35.168c2.095,1.769 2.785,1.715 3.259,1.715c0.654,-0 1.687,-0.262 2.199,-1.731c0.389,-1.115 0.643,-4.509 0.643,-10.602c-0,-3.345 0.03,-5.792 0.192,-7.641c0.152,-1.742 0.372,-2.847 0.928,-3.661c0.546,-0.801 1.391,-1.281 2.572,-1.927c0.868,-0.475 1.851,-0.687 4.202,-0.84c2.799,-0.182 7.244,-0.22 14.855,-0.217c7.675,0.002 12.418,0.026 15.597,0.358c4.08,0.427 5.149,1.44 7.159,3.829l1.495,1.777l-0,66.401c-0,0.547 0.223,1.069 0.618,1.447l5.438,5.194c2.99,2.857 13.029,12.475 22.309,21.375c9.293,8.911 19.98,19.046 23.75,22.521c11.206,10.332 13.436,13.747 13.436,22.467c-0,5.876 -1.408,9.788 -5.062,13.95c-3.975,4.527 -6.28,5.05 -16.648,5.056c-5.576,0.004 -11.933,0.229 -14.127,0.492l-3.922,0.472c-1.004,0.12 -1.759,0.97 -1.762,1.981l-0.404,173.094l-1.663,4.942c-7.372,21.908 -22.951,36.81 -43.816,41.812c-6.081,1.458 -8.824,1.439 -126.521,1.392c-111.634,-0.044 -120.537,-0.068 -124.697,-1.267Zm203,-47.538c4.087,-2.012 7.744,-5.889 9.644,-10.223c1.239,-2.825 1.35,-7.92 1.579,-72.601l0.248,-69.562l-22.401,-0l-22.401,-0l-2.912,-2.912l-2.911,-2.912l-0,-48.926l-51.025,-0c-55.664,-0 -54.044,-0.119 -58.663,4.305c-1.562,1.496 -2.063,2.688 -2.063,4.909c0,6.219 -4.614,10.971 -10.699,11.019l-2.075,0.017l0.399,172.875l1.726,3.75c2.695,5.854 7.178,9.916 12.895,11.683c1.034,0.32 34.111,0.522 73.504,0.449l71.625,-0.132l3.53,-1.739Z" style="fill:#517284;"/><path id="path2" d="M129.918,472.399c-20.528,-5.916 -36.051,-21.663 -42.697,-43.242l-1.575,-5.111l-0.227,-85.951l-0.228,-86.25c-0.003,-1.103 -0.897,-1.995 -2,-1.995l-13.289,-0c-13.752,-0 -15.609,-0.265 -20.441,-5.097c-3.997,-3.997 -5.071,-7.085 -5.084,-13.956c-0.02,-10.201 1.463,-11.987 18.162,-27.343c7.858,-7.226 22.875,-21.218 33.371,-31.093c10.491,-9.869 29.522,-27.756 42.293,-39.748c31.372,-29.46 49.658,-46.755 67.544,-63.889c21.012,-20.126 25.166,-23.763 31.025,-26.662c13.319,-6.59 30.443,-5.599 42.534,2.48c2.94,1.964 17.241,14.993 33.302,30.3c25.725,24.517 34.18,32.552 37.28,35.168c2.095,1.769 2.785,1.715 3.259,1.715c0.654,-0 1.687,-0.262 2.199,-1.731c0.389,-1.115 0.643,-4.509 0.643,-10.602c-0,-3.345 0.03,-5.792 0.192,-7.641c0.152,-1.742 0.372,-2.847 0.928,-3.661c0.546,-0.801 1.391,-1.281 2.572,-1.927c0.868,-0.475 1.851,-0.687 4.202,-0.84c2.799,-0.182 7.244,-0.22 14.855,-0.217c7.675,0.002 12.418,0.026 15.597,0.358c4.08,0.427 5.149,1.44 7.159,3.829l1.495,1.777l-0,66.401c-0,0.547 0.223,1.069 0.618,1.447l5.438,5.194c2.99,2.857 13.029,12.475 22.309,21.375c9.293,8.911 19.98,19.046 23.75,22.521c11.206,10.332 13.436,13.747 13.436,22.467c-0,5.876 -1.408,9.788 -5.062,13.95c-3.975,4.527 -6.28,5.05 -16.648,5.056c-5.576,0.004 -11.933,0.229 -14.127,0.492l-3.922,0.472c-1.004,0.12 -1.759,0.97 -1.762,1.981l-0.404,173.094l-1.663,4.942c-7.372,21.908 -22.951,36.81 -43.816,41.812c-6.081,1.458 -8.824,1.439 -126.521,1.392c-111.634,-0.044 -120.537,-0.068 -124.697,-1.267Zm298.907,-241.961c10.815,-0.055 19.664,-0.287 19.664,-0.515c-0,-0.56 -8.211,-8.55 -19.084,-18.573c-20.502,-18.898 -30.478,-28.203 -38.649,-36.051c-4.753,-4.565 -11.342,-10.777 -14.642,-13.805c-3.3,-3.027 -9.544,-8.921 -13.875,-13.097c-7.4,-7.136 -17.842,-16.897 -39.767,-37.172c-5.13,-4.744 -14.059,-13.181 -19.843,-18.75c-17.547,-16.895 -30.979,-28.746 -35.428,-31.26c-2.322,-1.312 -5.82,-2.605 -7.773,-2.873c-4.394,-0.605 -11.933,1.194 -15.855,3.783c-2.231,1.473 -18.003,16.132 -36.284,33.725c-1.286,1.237 -5.339,5.117 -9.007,8.622c-3.667,3.505 -10.887,10.426 -16.043,15.381c-5.156,4.954 -15.109,14.406 -22.117,21.003c-7.008,6.596 -16.122,15.2 -20.252,19.119c-4.131,3.919 -14.26,13.356 -22.509,20.972c-8.248,7.615 -17.697,16.422 -20.997,19.57c-3.3,3.149 -9.834,9.237 -14.52,13.529c-4.686,4.292 -10.424,9.56 -12.75,11.707l-4.23,3.903l18.889,0.035c10.388,0.018 19.754,0.363 20.812,0.765l1.924,0.732l0.003,-8.419c0.003,-10.377 0.046,-10.457 10.904,-20.445c14.193,-13.054 30.46,-28.227 38.593,-35.996c4.331,-4.138 12.427,-11.732 17.991,-16.876c15.612,-14.434 53.862,-50.732 66.384,-62.998c6.187,-6.061 12.039,-11.268 13.003,-11.571c0.964,-0.303 2.955,-0.325 4.424,-0.049c2.728,0.511 4.699,2.204 23.08,19.821c4.129,3.957 10.204,9.712 13.5,12.788c3.296,3.076 9.705,9.159 14.243,13.519c4.537,4.36 11.954,11.293 16.482,15.407c4.527,4.115 9.421,8.662 10.875,10.106c1.454,1.444 3.994,3.772 5.643,5.174c1.65,1.402 7.008,6.296 11.907,10.875c4.9,4.579 9.793,9.129 10.875,10.11c1.082,0.981 6.038,5.706 11.012,10.5c4.974,4.794 11.555,10.961 14.625,13.706c3.069,2.744 8.112,7.339 11.206,10.21l5.625,5.221l-0,10.171c-0,9.085 0.123,10.06 1.148,9.134c0.91,-0.821 5.239,-1.058 20.813,-1.138Zm-94.66,212.371c-0.233,-0.378 6.543,-0.787 15.622,-0.945l16.034,-0.278l6.503,-3.297c7.553,-3.83 12.234,-8.573 14.867,-15.064l1.673,-4.125l0.396,-200.328l-4.698,-4.836c-2.584,-2.66 -6.723,-6.644 -9.198,-8.855c-2.475,-2.21 -7.538,-6.954 -11.25,-10.543c-3.713,-3.588 -11.981,-11.388 -18.375,-17.335c-6.394,-5.946 -11.799,-10.989 -12.012,-11.207c-0.825,-0.845 -14.407,-13.637 -25.106,-23.646c-6.173,-5.775 -14.279,-13.369 -18.014,-16.875c-3.734,-3.506 -8.814,-8.231 -11.29,-10.5c-2.475,-2.269 -8.615,-7.959 -13.644,-12.645l-9.144,-8.521l-11.457,10.717c-6.302,5.894 -15.132,14.285 -19.623,18.646c-4.49,4.36 -8.718,8.434 -9.395,9.053c-0.677,0.619 -6.791,6.361 -13.586,12.76c-6.795,6.399 -17.248,16.164 -23.229,21.7c-5.981,5.535 -13.762,12.787 -17.29,16.115c-3.528,3.327 -10.952,10.269 -16.499,15.425c-17.559,16.323 -18.725,17.471 -20.247,19.934c-1.471,2.379 -1.488,3.75 -1.289,102.051l0.202,99.64l1.642,3.994c3.861,9.388 11.852,15.666 22.058,17.331c2.639,0.431 11.411,0.871 19.493,0.979l14.695,0.196c-0,-0 152.387,0.825 152.161,0.459Z" style="fill:#365b70;"/><path id="path1" d="M129.364,474.321c-21.17,-6.102 -37.201,-22.321 -44.055,-44.575l-1.662,-5.396l-0.228,-86.25l-0.228,-86.25l-13.289,-0c-14.741,-0 -16.676,-0.503 -21.855,-5.683c-4.408,-4.407 -5.656,-7.789 -5.67,-15.366c-0.02,-10.694 1.302,-12.72 18.808,-28.819c7.854,-7.223 22.864,-21.207 33.355,-31.077c10.49,-9.87 29.523,-27.758 42.294,-39.75c31.366,-29.453 49.647,-46.745 67.53,-63.875c21.321,-20.424 25.575,-24.069 31.521,-27.011c13.945,-6.899 31.873,-5.849 44.532,2.61c2.963,1.979 17.387,15.091 33.571,30.515c36.663,34.942 38.16,36.331 39.159,36.331c0.582,-0 0.842,-3.192 0.842,-10.333c-0,-11.404 0.378,-12.602 4.733,-14.984c2.084,-1.14 4.66,-1.307 20.017,-1.302c19.442,0.006 20.317,0.183 24.285,4.9l1.965,2.334l-0,67.131l5.437,5.195c2.991,2.857 13.032,12.477 22.313,21.377c9.281,8.901 19.956,19.023 23.721,22.495c11.888,10.96 14.08,14.686 14.08,23.937c-0,6.434 -1.558,10.712 -5.559,15.27c-4.349,4.952 -6.806,5.729 -18.15,5.736c-5.482,0.004 -11.732,0.219 -13.89,0.478l-3.922,0.471l-0.203,86.71l-0.202,86.71l-1.767,5.25c-7.607,22.609 -23.712,37.957 -45.245,43.119c-6.103,1.463 -8.856,1.494 -126.988,1.447c-112.13,-0.045 -121.071,-0.141 -125.25,-1.345l-0,0Zm249.313,-21.582c12.067,-3.354 24.627,-17.707 27.066,-30.929c0.468,-2.535 0.746,-38.271 0.746,-95.952l-0,-91.911l1.631,-1.736c1.625,-1.73 1.699,-1.736 21.534,-1.736l19.903,-0l-3.721,-3.821c-2.047,-2.102 -9.966,-9.593 -17.597,-16.647c-17.146,-15.851 -23.873,-22.152 -33,-30.911c-3.919,-3.761 -12.694,-12.038 -19.5,-18.394c-6.806,-6.355 -15.244,-14.283 -18.75,-17.616c-16.711,-15.887 -22.761,-21.545 -30.383,-28.413c-4.533,-4.085 -12.463,-11.51 -17.622,-16.5c-5.159,-4.99 -13.238,-12.617 -17.954,-16.948c-4.716,-4.331 -11.228,-10.325 -14.472,-13.32c-3.244,-2.995 -7.646,-6.33 -9.782,-7.413c-7.195,-3.646 -17.539,-3.007 -23.585,1.457c-2.56,1.891 -16.274,14.62 -31.31,29.062c-4.96,4.763 -12.898,12.343 -17.642,16.845c-4.744,4.501 -15.881,15.15 -24.75,23.665c-8.869,8.514 -21.544,20.509 -28.166,26.655c-10.894,10.109 -25.334,23.541 -54.312,50.519c-5.556,5.173 -12.981,12.184 -16.5,15.582l-6.397,6.176l19.971,0.011c17.025,0.009 20.111,0.181 20.925,1.162c0.761,0.916 0.975,20.165 1.053,94.687c0.092,86.871 0.193,93.858 1.418,98.037c3.665,12.507 11.586,21.965 22.795,27.217l4.338,2.033l110.625,0.413c120.853,0.451 127.459,0.388 133.438,-1.274Zm-81.211,-182.86c-1.096,-1.016 -2.327,-2.725 -2.735,-3.799c-0.433,-1.139 -0.742,-11.81 -0.742,-25.592l-0,-23.639l3.187,2.491c1.753,1.369 9.938,9.096 18.188,17.17c8.25,8.074 18.29,17.834 22.312,21.689c7.053,6.759 7.313,7.124 7.313,10.267l-0,3.259l-45.531,-0l-1.992,-1.846Z" style="fill:#0a2a42;fill-rule:nonzero;"/><g><path d="M309.505,305.146l-0,14.381c-0,3.968 -3.222,7.19 -7.19,7.19l-86.517,-0c-3.969,-0 -7.19,-3.222 -7.19,-7.19l-0,-14.381c-0,-3.968 3.221,-7.19 7.19,-7.19l86.517,0c3.968,0 7.19,3.222 7.19,7.19Z" style="fill:#0a2a42;"/><path d="M309.505,359.21l-0,14.38c-0,3.968 -3.222,7.19 -7.19,7.19l-86.517,-0c-3.969,-0 -7.19,-3.222 -7.19,-7.19l-0,-14.38c-0,-3.969 3.221,-7.19 7.19,-7.19l86.517,-0c3.968,-0 7.19,3.221 7.19,7.19Z" style="fill:#0a2a42;"/></g></g></g></svg>